<mxfile host="app.diagrams.net" modified="2021-09-26T20:07:48.274Z" agent="5.0 (Windows NT 10.0; Win64; x64) AppleWebKit/537.36 (KHTML, like Gecko) Chrome/93.0.4577.82 Safari/537.36" etag="UNCBXfv4x7u0UmMVB3oP" version="15.3.4" type="github">
  <diagram id="cFz4u4BG2L1Be8sLQZ2V" name="Page-1">
    <mxGraphModel dx="1036" dy="571" grid="1" gridSize="10" guides="1" tooltips="1" connect="1" arrows="1" fold="1" page="1" pageScale="1" pageWidth="827" pageHeight="1169" math="0" shadow="0">
      <root>
        <mxCell id="0" />
        <mxCell id="1" parent="0" />
        <mxCell id="vh5Wb2GA9aIOl87hTC1C-47" value="8.2" style="swimlane;childLayout=stackLayout;horizontal=1;startSize=30;horizontalStack=0;rounded=1;fontSize=14;fontStyle=1;strokeWidth=2;resizeParent=0;resizeLast=1;shadow=0;dashed=0;align=center;hachureGap=4;pointerEvents=0;fillColor=#dae8fc;strokeColor=#6c8ebf;" vertex="1" parent="1">
          <mxGeometry x="339" y="370" width="130" height="120" as="geometry" />
        </mxCell>
        <mxCell id="vh5Wb2GA9aIOl87hTC1C-48" value="View Fuel Cost&#xa;Amount" style="align=center;spacingLeft=4;fontSize=14;verticalAlign=top;resizable=0;rotatable=0;part=1;" vertex="1" parent="vh5Wb2GA9aIOl87hTC1C-47">
          <mxGeometry y="30" width="130" height="90" as="geometry" />
        </mxCell>
        <mxCell id="vh5Wb2GA9aIOl87hTC1C-49" value="" style="align=center;spacingLeft=4;fontSize=14;verticalAlign=top;resizable=0;rotatable=0;part=1;" vertex="1" parent="vh5Wb2GA9aIOl87hTC1C-47">
          <mxGeometry y="120" width="130" as="geometry" />
        </mxCell>
        <mxCell id="vh5Wb2GA9aIOl87hTC1C-50" value="" style="align=center;spacingLeft=4;fontSize=14;verticalAlign=top;resizable=0;rotatable=0;part=1;" vertex="1" parent="vh5Wb2GA9aIOl87hTC1C-47">
          <mxGeometry y="120" width="130" as="geometry" />
        </mxCell>
        <mxCell id="vh5Wb2GA9aIOl87hTC1C-51" value="7.3" style="swimlane;childLayout=stackLayout;horizontal=1;startSize=30;horizontalStack=0;rounded=1;fontSize=14;fontStyle=1;strokeWidth=2;resizeParent=0;resizeLast=1;shadow=0;dashed=0;align=center;hachureGap=4;pointerEvents=0;fillColor=#dae8fc;strokeColor=#6c8ebf;" vertex="1" parent="1">
          <mxGeometry x="339" y="530" width="130" height="120" as="geometry" />
        </mxCell>
        <mxCell id="vh5Wb2GA9aIOl87hTC1C-52" value="Update Fuel Cost&#xa;Info" style="align=center;spacingLeft=4;fontSize=14;verticalAlign=top;resizable=0;rotatable=0;part=1;" vertex="1" parent="vh5Wb2GA9aIOl87hTC1C-51">
          <mxGeometry y="30" width="130" height="90" as="geometry" />
        </mxCell>
        <mxCell id="vh5Wb2GA9aIOl87hTC1C-53" value="" style="align=center;spacingLeft=4;fontSize=14;verticalAlign=top;resizable=0;rotatable=0;part=1;" vertex="1" parent="vh5Wb2GA9aIOl87hTC1C-51">
          <mxGeometry y="120" width="130" as="geometry" />
        </mxCell>
        <mxCell id="vh5Wb2GA9aIOl87hTC1C-54" value="" style="align=center;spacingLeft=4;fontSize=14;verticalAlign=top;resizable=0;rotatable=0;part=1;" vertex="1" parent="vh5Wb2GA9aIOl87hTC1C-51">
          <mxGeometry y="120" width="130" as="geometry" />
        </mxCell>
        <mxCell id="vh5Wb2GA9aIOl87hTC1C-55" value="7.4" style="swimlane;childLayout=stackLayout;horizontal=1;startSize=30;horizontalStack=0;rounded=1;fontSize=14;fontStyle=1;strokeWidth=2;resizeParent=0;resizeLast=1;shadow=0;dashed=0;align=center;hachureGap=4;pointerEvents=0;fillColor=#dae8fc;strokeColor=#6c8ebf;" vertex="1" parent="1">
          <mxGeometry x="339" y="690" width="130" height="120" as="geometry" />
        </mxCell>
        <mxCell id="vh5Wb2GA9aIOl87hTC1C-56" value="Delete Fuelcost&#xa;InfoÂ " style="align=center;spacingLeft=4;fontSize=14;verticalAlign=top;resizable=0;rotatable=0;part=1;" vertex="1" parent="vh5Wb2GA9aIOl87hTC1C-55">
          <mxGeometry y="30" width="130" height="90" as="geometry" />
        </mxCell>
        <mxCell id="vh5Wb2GA9aIOl87hTC1C-57" value="" style="align=center;spacingLeft=4;fontSize=14;verticalAlign=top;resizable=0;rotatable=0;part=1;" vertex="1" parent="vh5Wb2GA9aIOl87hTC1C-55">
          <mxGeometry y="120" width="130" as="geometry" />
        </mxCell>
        <mxCell id="vh5Wb2GA9aIOl87hTC1C-58" value="" style="align=center;spacingLeft=4;fontSize=14;verticalAlign=top;resizable=0;rotatable=0;part=1;" vertex="1" parent="vh5Wb2GA9aIOl87hTC1C-55">
          <mxGeometry y="120" width="130" as="geometry" />
        </mxCell>
        <mxCell id="vh5Wb2GA9aIOl87hTC1C-59" value="&lt;font style=&quot;font-size: 14px&quot;&gt;&lt;b&gt;Admin&lt;/b&gt;&lt;/font&gt;" style="whiteSpace=wrap;html=1;align=center;hachureGap=4;pointerEvents=0;fillColor=#008a00;strokeColor=#005700;fontColor=#ffffff;" vertex="1" parent="1">
          <mxGeometry x="170" y="490" width="100" height="40" as="geometry" />
        </mxCell>
        <mxCell id="vh5Wb2GA9aIOl87hTC1C-60" value="&lt;font size=&quot;3&quot;&gt;&lt;b&gt;D1 TSM Database&lt;/b&gt;&lt;/font&gt;" style="html=1;dashed=0;whitespace=wrap;shape=mxgraph.dfd.dataStoreID;align=left;spacingLeft=3;points=[[0,0],[0.5,0],[1,0],[0,0.5],[1,0.5],[0,1],[0.5,1],[1,1]];hachureGap=4;pointerEvents=0;" vertex="1" parent="1">
          <mxGeometry x="540" y="495" width="150" height="30" as="geometry" />
        </mxCell>
        <mxCell id="vh5Wb2GA9aIOl87hTC1C-61" value="" style="endArrow=classic;html=1;sourcePerimeterSpacing=8;targetPerimeterSpacing=8;exitX=1;exitY=0.5;exitDx=0;exitDy=0;" edge="1" parent="1">
          <mxGeometry x="170" y="220" width="50" height="50" as="geometry">
            <mxPoint x="469" y="295" as="sourcePoint" />
            <mxPoint x="580" y="490" as="targetPoint" />
            <Array as="points">
              <mxPoint x="580" y="295" />
            </Array>
          </mxGeometry>
        </mxCell>
        <mxCell id="vh5Wb2GA9aIOl87hTC1C-62" value="&lt;font style=&quot;font-size: 14px&quot;&gt;Store&amp;nbsp; Info&lt;/font&gt;" style="text;html=1;align=center;verticalAlign=middle;resizable=0;points=[];autosize=1;strokeColor=none;fillColor=none;" vertex="1" parent="1">
          <mxGeometry x="494" y="270" width="80" height="20" as="geometry" />
        </mxCell>
        <mxCell id="vh5Wb2GA9aIOl87hTC1C-63" value="" style="endArrow=classic;html=1;sourcePerimeterSpacing=8;targetPerimeterSpacing=8;entryX=1;entryY=0.25;entryDx=0;entryDy=0;" edge="1" parent="1" target="vh5Wb2GA9aIOl87hTC1C-48">
          <mxGeometry x="170" y="220" width="50" height="50" as="geometry">
            <mxPoint x="550" y="490" as="sourcePoint" />
            <mxPoint x="400" y="480" as="targetPoint" />
            <Array as="points">
              <mxPoint x="550" y="423" />
            </Array>
          </mxGeometry>
        </mxCell>
        <mxCell id="vh5Wb2GA9aIOl87hTC1C-64" value="&lt;font style=&quot;font-size: 14px&quot;&gt;Provide&amp;nbsp;&lt;br&gt;&amp;nbsp;Info&lt;/font&gt;" style="text;html=1;align=center;verticalAlign=middle;resizable=0;points=[];autosize=1;strokeColor=none;fillColor=none;" vertex="1" parent="1">
          <mxGeometry x="488" y="390" width="70" height="30" as="geometry" />
        </mxCell>
        <mxCell id="vh5Wb2GA9aIOl87hTC1C-65" value="" style="endArrow=classic;html=1;sourcePerimeterSpacing=8;targetPerimeterSpacing=8;exitX=0.25;exitY=0;exitDx=0;exitDy=0;" edge="1" parent="1" source="vh5Wb2GA9aIOl87hTC1C-59">
          <mxGeometry x="170" y="220" width="50" height="50" as="geometry">
            <mxPoint x="350" y="520" as="sourcePoint" />
            <mxPoint x="340" y="280" as="targetPoint" />
            <Array as="points">
              <mxPoint x="195" y="280" />
            </Array>
          </mxGeometry>
        </mxCell>
        <mxCell id="vh5Wb2GA9aIOl87hTC1C-66" value="&lt;font style=&quot;font-size: 14px&quot;&gt;Can&lt;/font&gt;" style="text;html=1;align=center;verticalAlign=middle;resizable=0;points=[];autosize=1;strokeColor=none;fillColor=none;" vertex="1" parent="1">
          <mxGeometry x="250" y="260" width="40" height="20" as="geometry" />
        </mxCell>
        <mxCell id="vh5Wb2GA9aIOl87hTC1C-67" value="" style="endArrow=classic;html=1;sourcePerimeterSpacing=8;targetPerimeterSpacing=8;exitX=0.617;exitY=-0.006;exitDx=0;exitDy=0;exitPerimeter=0;entryX=0;entryY=0.25;entryDx=0;entryDy=0;" edge="1" parent="1" source="vh5Wb2GA9aIOl87hTC1C-59" target="vh5Wb2GA9aIOl87hTC1C-48">
          <mxGeometry x="170" y="220" width="50" height="50" as="geometry">
            <mxPoint x="350" y="520" as="sourcePoint" />
            <mxPoint x="400" y="470" as="targetPoint" />
            <Array as="points">
              <mxPoint x="232" y="423" />
            </Array>
          </mxGeometry>
        </mxCell>
        <mxCell id="vh5Wb2GA9aIOl87hTC1C-68" value="&lt;font style=&quot;font-size: 14px&quot;&gt;Can see total&lt;/font&gt;" style="text;html=1;align=center;verticalAlign=middle;resizable=0;points=[];autosize=1;strokeColor=none;fillColor=none;" vertex="1" parent="1">
          <mxGeometry x="220" y="395" width="100" height="20" as="geometry" />
        </mxCell>
        <mxCell id="vh5Wb2GA9aIOl87hTC1C-69" value="" style="endArrow=classic;html=1;sourcePerimeterSpacing=8;targetPerimeterSpacing=8;exitX=0.5;exitY=1;exitDx=0;exitDy=0;entryX=0;entryY=0.5;entryDx=0;entryDy=0;" edge="1" parent="1" source="vh5Wb2GA9aIOl87hTC1C-59" target="vh5Wb2GA9aIOl87hTC1C-52">
          <mxGeometry x="170" y="220" width="50" height="50" as="geometry">
            <mxPoint x="350" y="520" as="sourcePoint" />
            <mxPoint x="400" y="470" as="targetPoint" />
            <Array as="points">
              <mxPoint x="220" y="605" />
            </Array>
          </mxGeometry>
        </mxCell>
        <mxCell id="vh5Wb2GA9aIOl87hTC1C-70" value="&lt;font style=&quot;font-size: 14px&quot;&gt;Can&lt;/font&gt;" style="text;html=1;align=center;verticalAlign=middle;resizable=0;points=[];autosize=1;strokeColor=none;fillColor=none;" vertex="1" parent="1">
          <mxGeometry x="250" y="580" width="40" height="20" as="geometry" />
        </mxCell>
        <mxCell id="vh5Wb2GA9aIOl87hTC1C-71" value="" style="endArrow=classic;html=1;sourcePerimeterSpacing=8;targetPerimeterSpacing=8;exitX=0.25;exitY=1;exitDx=0;exitDy=0;entryX=0;entryY=0.5;entryDx=0;entryDy=0;" edge="1" parent="1" source="vh5Wb2GA9aIOl87hTC1C-59" target="vh5Wb2GA9aIOl87hTC1C-56">
          <mxGeometry x="170" y="220" width="50" height="50" as="geometry">
            <mxPoint x="350" y="520" as="sourcePoint" />
            <mxPoint x="400" y="470" as="targetPoint" />
            <Array as="points">
              <mxPoint x="195" y="765" />
            </Array>
          </mxGeometry>
        </mxCell>
        <mxCell id="vh5Wb2GA9aIOl87hTC1C-72" value="&lt;font style=&quot;font-size: 14px&quot;&gt;Can&lt;/font&gt;" style="text;html=1;align=center;verticalAlign=middle;resizable=0;points=[];autosize=1;strokeColor=none;fillColor=none;" vertex="1" parent="1">
          <mxGeometry x="250" y="740" width="40" height="20" as="geometry" />
        </mxCell>
        <mxCell id="vh5Wb2GA9aIOl87hTC1C-73" value="" style="endArrow=classic;html=1;sourcePerimeterSpacing=8;targetPerimeterSpacing=8;exitX=0.267;exitY=1.167;exitDx=0;exitDy=0;exitPerimeter=0;" edge="1" parent="1" source="vh5Wb2GA9aIOl87hTC1C-60">
          <mxGeometry x="170" y="220" width="50" height="50" as="geometry">
            <mxPoint x="350" y="750" as="sourcePoint" />
            <mxPoint x="470" y="610" as="targetPoint" />
            <Array as="points">
              <mxPoint x="580" y="610" />
            </Array>
          </mxGeometry>
        </mxCell>
        <mxCell id="vh5Wb2GA9aIOl87hTC1C-74" value="&lt;font style=&quot;font-size: 14px&quot;&gt;Add New Info&lt;/font&gt;" style="text;html=1;align=center;verticalAlign=middle;resizable=0;points=[];autosize=1;strokeColor=none;fillColor=none;" vertex="1" parent="1">
          <mxGeometry x="473" y="590" width="100" height="20" as="geometry" />
        </mxCell>
        <mxCell id="vh5Wb2GA9aIOl87hTC1C-75" value="" style="endArrow=classic;html=1;sourcePerimeterSpacing=8;targetPerimeterSpacing=8;exitX=0.668;exitY=0.986;exitDx=0;exitDy=0;exitPerimeter=0;" edge="1" parent="1" source="vh5Wb2GA9aIOl87hTC1C-60">
          <mxGeometry x="170" y="220" width="50" height="50" as="geometry">
            <mxPoint x="350" y="750" as="sourcePoint" />
            <mxPoint x="470" y="750" as="targetPoint" />
            <Array as="points">
              <mxPoint x="640" y="750" />
            </Array>
          </mxGeometry>
        </mxCell>
        <mxCell id="vh5Wb2GA9aIOl87hTC1C-76" value="&lt;font style=&quot;font-size: 14px&quot;&gt;Remove Fuel Cost Info&lt;/font&gt;" style="text;html=1;align=center;verticalAlign=middle;resizable=0;points=[];autosize=1;strokeColor=none;fillColor=none;" vertex="1" parent="1">
          <mxGeometry x="475" y="720" width="160" height="20" as="geometry" />
        </mxCell>
        <mxCell id="vh5Wb2GA9aIOl87hTC1C-78" value="8.1" style="swimlane;childLayout=stackLayout;horizontal=1;startSize=30;horizontalStack=0;rounded=1;fontSize=14;fontStyle=1;strokeWidth=2;resizeParent=0;resizeLast=1;shadow=0;dashed=0;align=center;hachureGap=4;pointerEvents=0;fillColor=#dae8fc;strokeColor=#6c8ebf;" vertex="1" parent="1">
          <mxGeometry x="343" y="220" width="130" height="120" as="geometry" />
        </mxCell>
        <mxCell id="vh5Wb2GA9aIOl87hTC1C-79" value="Do Fuel Cost&#xa;Â Calculation" style="align=center;spacingLeft=4;fontSize=14;verticalAlign=top;resizable=0;rotatable=0;part=1;" vertex="1" parent="vh5Wb2GA9aIOl87hTC1C-78">
          <mxGeometry y="30" width="130" height="90" as="geometry" />
        </mxCell>
        <mxCell id="vh5Wb2GA9aIOl87hTC1C-80" value="" style="align=center;spacingLeft=4;fontSize=14;verticalAlign=top;resizable=0;rotatable=0;part=1;" vertex="1" parent="vh5Wb2GA9aIOl87hTC1C-78">
          <mxGeometry y="120" width="130" as="geometry" />
        </mxCell>
        <mxCell id="vh5Wb2GA9aIOl87hTC1C-81" value="" style="align=center;spacingLeft=4;fontSize=14;verticalAlign=top;resizable=0;rotatable=0;part=1;" vertex="1" parent="vh5Wb2GA9aIOl87hTC1C-78">
          <mxGeometry y="120" width="130" as="geometry" />
        </mxCell>
        <mxCell id="vh5Wb2GA9aIOl87hTC1C-82" value="" style="endArrow=classic;html=1;sourcePerimeterSpacing=8;targetPerimeterSpacing=8;" edge="1" parent="1">
          <mxGeometry width="50" height="50" relative="1" as="geometry">
            <mxPoint x="640" y="490" as="sourcePoint" />
            <mxPoint x="474" y="264" as="targetPoint" />
            <Array as="points">
              <mxPoint x="640" y="260" />
              <mxPoint x="490" y="260" />
            </Array>
          </mxGeometry>
        </mxCell>
        <mxCell id="vh5Wb2GA9aIOl87hTC1C-84" value="Retrieves Data from transport" style="text;html=1;align=center;verticalAlign=middle;resizable=0;points=[];autosize=1;strokeColor=none;fillColor=none;" vertex="1" parent="1">
          <mxGeometry x="480" y="240" width="170" height="20" as="geometry" />
        </mxCell>
      </root>
    </mxGraphModel>
  </diagram>
</mxfile>
